<svg width="2460" height="1740" viewBox="0 0 2460 1740" xmlns="http://www.w3.org/2000/svg" role="img" aria-label="SnoopTrade mobile app wireframes">
  <defs>
    <linearGradient id="boardBg" x1="0" y1="0" x2="1" y2="1">
      <stop offset="0%" stop-color="#0D1410"/>
      <stop offset="100%" stop-color="#131D17"/>
    </linearGradient>
    <linearGradient id="screenBg" x1="0" y1="0" x2="0" y2="1">
      <stop offset="0%" stop-color="#18231C"/>
      <stop offset="100%" stop-color="#121A15"/>
    </linearGradient>
    <linearGradient id="primaryGrad" x1="0" y1="0" x2="1" y2="1">
      <stop offset="0%" stop-color="#B7E389"/>
      <stop offset="100%" stop-color="#9DD665"/>
    </linearGradient>
    <filter id="shadow" x="-20%" y="-20%" width="140%" height="160%">
      <feDropShadow dx="0" dy="18" stdDeviation="18" flood-color="#060907" flood-opacity="0.35"/>
    </filter>
    <style>
      .board-title { fill:#EAF5EC; font: 700 40px 'Google Sans', 'SF Pro Display', Arial, sans-serif; }
      .board-sub { fill:#A9B8AD; font: 500 18px 'Google Sans', 'SF Pro Text', Arial, sans-serif; }
      .screen-label { fill:#DDECE0; font: 600 20px 'Google Sans', 'SF Pro Display', Arial, sans-serif; }
      .phone-shell { fill:#0A0F0C; stroke:#26342B; stroke-width:2; }
      .phone-screen { fill:url(#screenBg); stroke:#2D3A31; stroke-width:1.5; }
      .notch { fill:#0A0F0C; }
      .txt-lg { fill:#EAF5EC; font: 600 20px 'Google Sans', 'SF Pro Text', Arial, sans-serif; }
      .txt-md { fill:#EAF5EC; font: 500 15px 'Google Sans', 'SF Pro Text', Arial, sans-serif; }
      .txt-sm { fill:#A9B8AD; font: 500 12px 'Google Sans', 'SF Pro Text', Arial, sans-serif; }
      .txt-xs { fill:#8FA193; font: 500 10px 'Google Sans', 'SF Pro Text', Arial, sans-serif; }
      .surface { fill:#1F2A22; stroke:#2F3E34; stroke-width:1; }
      .surface-soft { fill:#263229; stroke:#334338; stroke-width:1; }
      .line { fill:none; stroke:#66C9A9; stroke-width:3; stroke-linecap:round; stroke-linejoin:round; }
      .line-forecast { fill:none; stroke:#B7E389; stroke-width:3; stroke-linecap:round; stroke-linejoin:round; }
      .muted-line { fill:none; stroke:#738678; stroke-width:2; stroke-dasharray:5 6; }
      .cta { fill:url(#primaryGrad); }
      .cta-txt { fill:#1A2A19; font: 700 14px 'Google Sans', 'SF Pro Text', Arial, sans-serif; }
      .tab-active { fill:#B7E389; }
      .tab-idle { fill:#6E8173; }
    </style>
  </defs>

  <rect x="0" y="0" width="2460" height="1740" fill="url(#boardBg)"/>

  <text x="80" y="72" class="board-title">SnoopTrade Mobile UI Wireframes</text>
  <text x="80" y="102" class="board-sub">Import this SVG into Figma, then convert each phone into a frame/component set.</text>

  <!-- Screen 1: Login -->
  <g transform="translate(80,140)" filter="url(#shadow)">
    <text x="0" y="-20" class="screen-label">1. Login</text>
    <rect class="phone-shell" x="0" y="0" width="360" height="760" rx="46"/>
    <rect class="phone-screen" x="16" y="16" width="328" height="728" rx="36"/>
    <rect class="notch" x="130" y="18" width="100" height="20" rx="10"/>

    <text x="44" y="92" class="txt-sm">SnoopTrade</text>
    <text x="44" y="132" class="txt-lg">Welcome back</text>
    <text x="44" y="154" class="txt-sm">Sign in to track insider activity.</text>

    <rect class="surface" x="36" y="196" width="288" height="48" rx="12"/>
    <circle cx="56" cy="220" r="6" fill="#8FA193"/>
    <text x="72" y="225" class="txt-sm">Email</text>

    <rect class="surface" x="36" y="256" width="288" height="48" rx="12"/>
    <circle cx="56" cy="280" r="6" fill="#8FA193"/>
    <text x="72" y="285" class="txt-sm">Password</text>

    <rect class="cta" x="36" y="324" width="288" height="48" rx="14"/>
    <text x="162" y="353" class="cta-txt">Login</text>

    <line x1="44" y1="406" x2="152" y2="406" stroke="#3B4A40"/>
    <text x="161" y="410" class="txt-xs">OR</text>
    <line x1="186" y1="406" x2="316" y2="406" stroke="#3B4A40"/>

    <rect class="surface-soft" x="36" y="430" width="288" height="48" rx="14"/>
    <circle cx="60" cy="454" r="9" fill="#D9E6DA"/>
    <text x="78" y="458" class="txt-sm">Continue with Google</text>

    <text x="78" y="514" class="txt-sm">No account yet?</text>
    <text x="176" y="514" class="txt-md" fill="#B7E389">Sign up</text>
  </g>

  <!-- Screen 2: Home -->
  <g transform="translate(470,140)" filter="url(#shadow)">
    <text x="0" y="-20" class="screen-label">2. Home Dashboard</text>
    <rect class="phone-shell" x="0" y="0" width="360" height="760" rx="46"/>
    <rect class="phone-screen" x="16" y="16" width="328" height="728" rx="36"/>
    <rect class="notch" x="130" y="18" width="100" height="20" rx="10"/>

    <circle cx="56" cy="76" r="16" fill="#2A3A2F"/>
    <text x="48" y="81" class="txt-xs">N</text>
    <text x="82" y="80" class="txt-md">Good evening</text>
    <circle cx="304" cy="76" r="12" fill="#2A3A2F"/>

    <rect class="surface" x="36" y="108" width="288" height="44" rx="12"/>
    <text x="52" y="135" class="txt-sm">Search ticker or company...</text>

    <rect class="surface-soft" x="36" y="166" width="188" height="34" rx="16"/>
    <circle cx="54" cy="183" r="10" fill="#9DD665"/>
    <text x="72" y="188" class="txt-sm">AAPL  Apple Inc.</text>

    <rect class="surface" x="36" y="214" width="288" height="170" rx="16"/>
    <text x="52" y="242" class="txt-md">Stock Price (1Y)</text>
    <path class="line" d="M52 346 L84 326 L114 336 L146 304 L182 312 L214 280 L244 288 L276 258 L308 266"/>
    <line x1="52" y1="356" x2="308" y2="356" stroke="#3B4A40"/>
    <text x="52" y="372" class="txt-xs">Jan</text>
    <text x="286" y="372" class="txt-xs">Dec</text>

    <rect class="surface" x="36" y="398" width="138" height="76" rx="14"/>
    <text x="50" y="424" class="txt-xs">Open</text>
    <text x="50" y="448" class="txt-md">$191.22</text>

    <rect class="surface" x="186" y="398" width="138" height="76" rx="14"/>
    <text x="200" y="424" class="txt-xs">Volume</text>
    <text x="200" y="448" class="txt-md">61.3M</text>

    <rect class="surface" x="36" y="486" width="288" height="98" rx="14"/>
    <text x="52" y="512" class="txt-md">Insider Snapshot</text>
    <text x="52" y="534" class="txt-sm">Purchases: 14  |  Sales: 9</text>
    <text x="52" y="554" class="txt-sm">Net signal: mildly bullish</text>

    <rect class="surface-soft" x="36" y="666" width="288" height="54" rx="18"/>
    <circle cx="72" cy="693" r="9" class="tab-active"/>
    <circle cx="138" cy="693" r="9" class="tab-idle"/>
    <circle cx="204" cy="693" r="9" class="tab-idle"/>
    <circle cx="270" cy="693" r="9" class="tab-idle"/>
  </g>

  <!-- Screen 3: Stock Detail -->
  <g transform="translate(860,140)" filter="url(#shadow)">
    <text x="0" y="-20" class="screen-label">3. Stock Detail</text>
    <rect class="phone-shell" x="0" y="0" width="360" height="760" rx="46"/>
    <rect class="phone-screen" x="16" y="16" width="328" height="728" rx="36"/>
    <rect class="notch" x="130" y="18" width="100" height="20" rx="10"/>

    <text x="38" y="80" class="txt-sm">&lt; Back</text>
    <text x="132" y="80" class="txt-md">AAPL</text>

    <rect class="surface-soft" x="36" y="102" width="288" height="38" rx="14"/>
    <rect x="40" y="106" width="66" height="30" rx="10" fill="#B7E389"/>
    <text x="64" y="126" class="txt-xs" fill="#1A2A19">1M</text>
    <text x="128" y="126" class="txt-xs">3M</text>
    <text x="188" y="126" class="txt-xs">6M</text>
    <text x="248" y="126" class="txt-xs">1Y</text>

    <rect class="surface" x="36" y="154" width="288" height="248" rx="16"/>
    <text x="52" y="182" class="txt-md">Stock Price Trends</text>
    <path class="line" d="M54 360 L82 344 L110 350 L138 318 L168 324 L196 298 L226 306 L252 276 L306 288"/>
    <line x1="54" y1="374" x2="306" y2="374" stroke="#3B4A40"/>
    <text x="54" y="392" class="txt-xs">Price</text>

    <rect class="cta" x="36" y="418" width="288" height="48" rx="14"/>
    <text x="112" y="447" class="cta-txt">Predict Future Trends</text>

    <rect class="surface" x="36" y="482" width="138" height="90" rx="14"/>
    <text x="50" y="506" class="txt-xs">52W High</text>
    <text x="50" y="532" class="txt-md">$198.70</text>

    <rect class="surface" x="186" y="482" width="138" height="90" rx="14"/>
    <text x="200" y="506" class="txt-xs">52W Low</text>
    <text x="200" y="532" class="txt-md">$164.08</text>

    <rect class="surface-soft" x="36" y="666" width="288" height="54" rx="18"/>
    <circle cx="72" cy="693" r="9" class="tab-active"/>
    <circle cx="138" cy="693" r="9" class="tab-idle"/>
    <circle cx="204" cy="693" r="9" class="tab-idle"/>
    <circle cx="270" cy="693" r="9" class="tab-idle"/>
  </g>

  <!-- Screen 4: Forecast -->
  <g transform="translate(1250,140)" filter="url(#shadow)">
    <text x="0" y="-20" class="screen-label">4. Forecast</text>
    <rect class="phone-shell" x="0" y="0" width="360" height="760" rx="46"/>
    <rect class="phone-screen" x="16" y="16" width="328" height="728" rx="36"/>
    <rect class="notch" x="130" y="18" width="100" height="20" rx="10"/>

    <text x="36" y="80" class="txt-lg">Forecast (30d)</text>
    <text x="36" y="100" class="txt-sm">AAPL - generated from latest OHLC data</text>

    <rect class="surface" x="36" y="118" width="288" height="250" rx="16"/>
    <text x="52" y="146" class="txt-md">Predicted Price</text>
    <path d="M54 326 L84 316 L114 322 L142 302 L170 300 L198 286 L226 274 L254 262 L306 244 L306 270 L254 286 L226 294 L198 308 L170 318 L142 326 L114 338 L84 332 L54 342 Z" fill="#B7E389" opacity="0.18"/>
    <path class="line-forecast" d="M54 334 L84 324 L114 330 L142 314 L170 309 L198 297 L226 284 L254 274 L306 258"/>
    <path class="muted-line" d="M54 344 L84 334 L114 340 L142 326 L170 324 L198 314 L226 302 L254 292 L306 280"/>

    <rect class="surface-soft" x="36" y="382" width="288" height="42" rx="12"/>
    <circle cx="56" cy="403" r="5" fill="#B7E389"/>
    <text x="68" y="407" class="txt-xs">Forecast</text>
    <circle cx="146" cy="403" r="5" fill="#738678"/>
    <text x="158" y="407" class="txt-xs">Trend</text>
    <circle cx="216" cy="403" r="5" fill="#B7E389" opacity="0.35"/>
    <text x="228" y="407" class="txt-xs">Confidence</text>

    <rect class="surface" x="36" y="438" width="288" height="64" rx="14"/>
    <text x="52" y="462" class="txt-xs">Tomorrow</text>
    <text x="52" y="486" class="txt-md">$193.44</text>
    <text x="214" y="486" class="txt-sm" fill="#B7E389">+0.72%</text>

    <rect class="surface" x="36" y="512" width="288" height="64" rx="14"/>
    <text x="52" y="536" class="txt-xs">In 7 days</text>
    <text x="52" y="560" class="txt-md">$196.10</text>
    <text x="214" y="560" class="txt-sm" fill="#B7E389">+2.11%</text>

    <rect class="surface-soft" x="36" y="666" width="288" height="54" rx="18"/>
    <circle cx="72" cy="693" r="9" class="tab-idle"/>
    <circle cx="138" cy="693" r="9" class="tab-idle"/>
    <circle cx="204" cy="693" r="9" class="tab-active"/>
    <circle cx="270" cy="693" r="9" class="tab-idle"/>
  </g>

  <!-- Screen 5: Transactions -->
  <g transform="translate(1640,140)" filter="url(#shadow)">
    <text x="0" y="-20" class="screen-label">5. Transactions</text>
    <rect class="phone-shell" x="0" y="0" width="360" height="760" rx="46"/>
    <rect class="phone-screen" x="16" y="16" width="328" height="728" rx="36"/>
    <rect class="notch" x="130" y="18" width="100" height="20" rx="10"/>

    <text x="36" y="80" class="txt-lg">Insider Transactions</text>

    <rect class="surface-soft" x="36" y="100" width="88" height="32" rx="16"/>
    <text x="66" y="120" class="txt-xs">P</text>
    <rect class="surface-soft" x="132" y="100" width="88" height="32" rx="16"/>
    <text x="164" y="120" class="txt-xs">S</text>
    <rect class="surface-soft" x="228" y="100" width="96" height="32" rx="16"/>
    <text x="262" y="120" class="txt-xs">M</text>

    <rect class="surface" x="36" y="148" width="288" height="94" rx="14"/>
    <circle cx="56" cy="174" r="7" fill="#68D08E"/>
    <text x="70" y="178" class="txt-sm">Purchase</text>
    <text x="232" y="178" class="txt-sm">Jan 28</text>
    <text x="52" y="202" class="txt-xs">Shares: 42,000</text>
    <text x="52" y="220" class="txt-xs">Price/share: $187.12</text>
    <text x="210" y="220" class="txt-xs">Total: $7.86M</text>

    <rect class="surface" x="36" y="252" width="288" height="94" rx="14"/>
    <circle cx="56" cy="278" r="7" fill="#E56A6A"/>
    <text x="70" y="282" class="txt-sm">Sale</text>
    <text x="240" y="282" class="txt-sm">Jan 21</text>
    <text x="52" y="306" class="txt-xs">Shares: 25,500</text>
    <text x="52" y="324" class="txt-xs">Price/share: $190.04</text>
    <text x="210" y="324" class="txt-xs">Total: $4.84M</text>

    <rect class="surface" x="36" y="356" width="288" height="94" rx="14"/>
    <circle cx="56" cy="382" r="7" fill="#75B7FF"/>
    <text x="70" y="386" class="txt-sm">Exercise</text>
    <text x="236" y="386" class="txt-sm">Jan 16</text>
    <text x="52" y="410" class="txt-xs">Shares: 12,700</text>
    <text x="52" y="428" class="txt-xs">Price/share: $171.55</text>
    <text x="210" y="428" class="txt-xs">Total: $2.18M</text>

    <rect class="surface-soft" x="36" y="666" width="288" height="54" rx="18"/>
    <circle cx="72" cy="693" r="9" class="tab-idle"/>
    <circle cx="138" cy="693" r="9" class="tab-active"/>
    <circle cx="204" cy="693" r="9" class="tab-idle"/>
    <circle cx="270" cy="693" r="9" class="tab-idle"/>
  </g>

  <!-- Screen 6: Account -->
  <g transform="translate(2030,140)" filter="url(#shadow)">
    <text x="0" y="-20" class="screen-label">6. Account</text>
    <rect class="phone-shell" x="0" y="0" width="360" height="760" rx="46"/>
    <rect class="phone-screen" x="16" y="16" width="328" height="728" rx="36"/>
    <rect class="notch" x="130" y="18" width="100" height="20" rx="10"/>

    <text x="36" y="80" class="txt-lg">Account Settings</text>

    <rect class="surface" x="36" y="102" width="288" height="116" rx="16"/>
    <circle cx="74" cy="140" r="24" fill="#2F3F35"/>
    <text x="64" y="145" class="txt-sm">NP</text>
    <text x="108" y="138" class="txt-md">Nevil Padariya</text>
    <text x="108" y="158" class="txt-xs">login: Google + Password</text>

    <rect class="surface" x="36" y="232" width="288" height="146" rx="16"/>
    <text x="52" y="258" class="txt-xs">Email</text>
    <rect class="surface-soft" x="52" y="266" width="256" height="36" rx="10"/>
    <text x="64" y="289" class="txt-sm">nevil@example.com</text>

    <text x="52" y="324" class="txt-xs">Name</text>
    <rect class="surface-soft" x="52" y="332" width="256" height="36" rx="10"/>
    <text x="64" y="355" class="txt-sm">Nevil Padariya</text>

    <rect class="surface" x="36" y="394" width="288" height="156" rx="16"/>
    <text x="52" y="420" class="txt-md">Change Password</text>
    <rect class="surface-soft" x="52" y="432" width="256" height="36" rx="10"/>
    <text x="64" y="455" class="txt-xs">New password</text>
    <rect class="surface-soft" x="52" y="476" width="256" height="36" rx="10"/>
    <text x="64" y="499" class="txt-xs">Confirm password</text>

    <rect class="cta" x="52" y="520" width="256" height="40" rx="12"/>
    <text x="124" y="545" class="cta-txt">Update Password</text>

    <rect x="36" y="600" width="288" height="44" rx="12" fill="#E56A6A"/>
    <text x="162" y="628" class="txt-md" fill="#FFFFFF">Logout</text>

    <rect class="surface-soft" x="36" y="666" width="288" height="54" rx="18"/>
    <circle cx="72" cy="693" r="9" class="tab-idle"/>
    <circle cx="138" cy="693" r="9" class="tab-idle"/>
    <circle cx="204" cy="693" r="9" class="tab-idle"/>
    <circle cx="270" cy="693" r="9" class="tab-active"/>
  </g>

  <!-- Notes strip -->
  <rect x="80" y="980" width="2310" height="650" rx="22" fill="#17221B" stroke="#2C3A31"/>
  <text x="110" y="1025" class="txt-lg">Handoff Notes</text>
  <text x="110" y="1056" class="txt-sm">- Use 16px horizontal padding and 8px spacing scale across all screens.</text>
  <text x="110" y="1082" class="txt-sm">- Keep charts readable on mobile: fixed card heights (220-260px) and reduced axis clutter.</text>
  <text x="110" y="1108" class="txt-sm">- Reuse API endpoints already in web app (stocks, transactions, forecast, auth).</text>
  <text x="110" y="1134" class="txt-sm">- Recommended mobile stack: React Native + Expo + React Query + Secure Store.</text>

  <rect x="110" y="1166" width="1100" height="430" rx="16" fill="#111915" stroke="#2A3830"/>
  <text x="138" y="1202" class="txt-md">Component Checklist</text>
  <text x="138" y="1232" class="txt-sm">1. Auth: email/password + Google OAuth.</text>
  <text x="138" y="1258" class="txt-sm">2. Search: ticker autocomplete from allowed universe.</text>
  <text x="138" y="1284" class="txt-sm">3. Chart cards: stock line chart + volume chart.</text>
  <text x="138" y="1310" class="txt-sm">4. Forecast view: predicted line + confidence area.</text>
  <text x="138" y="1336" class="txt-sm">5. Transactions list: type/date/shares/price/total.</text>
  <text x="138" y="1362" class="txt-sm">6. Account: password update and logout.</text>

  <rect x="1240" y="1166" width="1150" height="430" rx="16" fill="#111915" stroke="#2A3830"/>
  <text x="1268" y="1202" class="txt-md">Token Palette</text>

  <rect x="1268" y="1230" width="170" height="56" rx="10" fill="#0E1410" stroke="#2D3C33"/>
  <text x="1278" y="1262" class="txt-xs">BG #0E1410</text>

  <rect x="1454" y="1230" width="170" height="56" rx="10" fill="#1A231C" stroke="#2D3C33"/>
  <text x="1464" y="1262" class="txt-xs">Surface #1A231C</text>

  <rect x="1640" y="1230" width="170" height="56" rx="10" fill="#253129" stroke="#2D3C33"/>
  <text x="1650" y="1262" class="txt-xs">Soft #253129</text>

  <rect x="1826" y="1230" width="170" height="56" rx="10" fill="#B7E389"/>
  <text x="1836" y="1262" class="txt-xs" fill="#1A2A19">Primary #B7E389</text>

  <rect x="2012" y="1230" width="170" height="56" rx="10" fill="#64C9A8"/>
  <text x="2022" y="1262" class="txt-xs" fill="#1A2A19">Accent #64C9A8</text>

  <rect x="1268" y="1302" width="170" height="56" rx="10" fill="#E56A6A"/>
  <text x="1278" y="1334" class="txt-xs" fill="#FFFFFF">Danger #E56A6A</text>

  <rect x="1454" y="1302" width="170" height="56" rx="10" fill="#314036"/>
  <text x="1464" y="1334" class="txt-xs">Border #314036</text>

  <rect x="1640" y="1302" width="170" height="56" rx="10" fill="#EAF5EC"/>
  <text x="1650" y="1334" class="txt-xs" fill="#122017">Text #EAF5EC</text>

  <rect x="1826" y="1302" width="170" height="56" rx="10" fill="#A7B7AC"/>
  <text x="1836" y="1334" class="txt-xs" fill="#122017">Muted #A7B7AC</text>

  <text x="1268" y="1410" class="txt-sm">Typography:</text>
  <text x="1268" y="1434" class="txt-sm">- Headings: Google Sans Semibold/Bold</text>
  <text x="1268" y="1458" class="txt-sm">- Body: Google Sans Regular/Medium</text>
  <text x="1268" y="1482" class="txt-sm">- Numbers: JetBrains Mono</text>

  <text x="1268" y="1530" class="txt-sm">Source files:</text>
  <text x="1268" y="1554" class="txt-sm">- docs/mobile-ui/SnoopTrade-mobile-ui-spec.md</text>
  <text x="1268" y="1578" class="txt-sm">- docs/mobile-ui/SnoopTrade-mobile-wireframes.svg</text>
</svg>
